Coordinates
version=1
nRows=27
nColumns=12
inDegrees=yes

Units are S.I. units (second, meters, Newtons, ...)
Angles are in degrees

endheader
time	SC_y	SC_z	SC_x	AC_y	AC_z	AC_x	GH_y	GH_z	GH_yy	EL_x	PS_y
       0.0               -20.6           19.4          70.14          60.51         -8.085         -7.385          118.7          30.34         -110.9          83.03          68.92
  0.006918               -20.6          19.39          70.14          60.51         -8.084         -7.383          118.7          30.34         -110.9          83.04          68.94
   0.01384              -20.61          19.39          70.14          60.51         -8.082         -7.382          118.7          30.34         -110.8          83.05          68.95
   0.02075              -20.61          19.39          70.14          60.51          -8.08         -7.381          118.7          30.34         -110.8          83.05          68.96
   0.02767              -20.62          19.38          70.14           60.5         -8.078         -7.379          118.7          30.34         -110.8          83.06          68.98
   0.03459              -20.63          19.38          70.14           60.5         -8.076         -7.377          118.7          30.34         -110.8          83.07          68.99
   0.04151              -20.64          19.38          70.14           60.5         -8.074         -7.376          118.7          30.34         -110.8          83.08          69.01
   0.04842              -20.64          19.37          70.14          60.49         -8.071         -7.374          118.7          30.34         -110.7           83.1          69.03
   0.05534              -20.65          19.37          70.14          60.49         -8.069         -7.372          118.6          30.34         -110.7          83.11          69.04
   0.06226              -20.66          19.36          70.14          60.49         -8.066          -7.37          118.6          30.34         -110.7          83.12          69.06
   0.06918              -20.67          19.36          70.15          60.48         -8.063         -7.367          118.6          30.34         -110.6          83.13          69.09
   0.07609              -20.68          19.35          70.15          60.48          -8.06         -7.365          118.6          30.34         -110.6          83.15          69.11
   0.08301               -20.7          19.34          70.15          60.47         -8.057         -7.362          118.6          30.34         -110.6          83.17          69.13
   0.08993              -20.71          19.34          70.15          60.47         -8.053         -7.359          118.5          30.34         -110.5          83.18          69.16
   0.09685              -20.72          19.33          70.15          60.46         -8.049         -7.356          118.5          30.34         -110.5           83.2          69.19
    0.1038              -20.74          19.32          70.16          60.45         -8.045         -7.353          118.5          30.34         -110.5          83.22          69.22
    0.1107              -20.75          19.31          70.16          60.45          -8.04         -7.349          118.5          30.34         -110.4          83.24          69.26
    0.1176              -20.77           19.3          70.16          60.44         -8.035         -7.345          118.4          30.34         -110.4          83.27          69.29
    0.1245              -20.79          19.29          70.16          60.43         -8.029         -7.341          118.4          30.34         -110.3           83.3          69.33
    0.1314              -20.81          19.28          70.17          60.42         -8.023         -7.336          118.4          30.34         -110.2          83.32          69.38
    0.1384              -20.84          19.27          70.17          60.41         -8.016         -7.331          118.3          30.34         -110.2          83.36          69.43
    0.1453              -20.86          19.26          70.17           60.4         -8.009         -7.325          118.3          30.34         -110.1          83.39          69.48
    0.1522              -20.89          19.24          70.18          60.39         -8.001         -7.318          118.2          30.34         -110.0          83.43          69.54
    0.1591              -20.92          19.23          70.18          60.38         -7.992         -7.311          118.2          30.34         -109.9          83.47          69.61
     0.166              -20.96          19.21          70.19          60.37         -7.982         -7.303          118.1          30.34         -109.8          83.52          69.68
    0.1729               -21.0          19.19          70.19          60.35          -7.97         -7.295          118.0          30.34         -109.7          83.57          69.76
    0.1799              -21.04          19.16           70.2          60.33         -7.958         -7.285          117.9          30.34         -109.6          83.63          69.86
